


___________________________________________________________________________________


           I Never Give Any Second Chance To My Friends ! I Never Give !                 

___________________________________________________________________________________





Note : It Will Be Seeded. Thanks. Movie Length Is 2:35:00 ! Hope You Understand ! 

       Additional English Subtitle Available. Enjoy !




Upcoming Movies :



Khokababu (2012) - Original DVD Print

Supriyo Flop Master General (1947)

2nd October Bholebaba 32 year Parben (1955)

Bholebabar Ar Biye Habe Na (1957) - Sequel

Amar Rakte Paglami Ache (1937)

Toder Buk Chire Rakto Khabo (1938)

Ami Khali Toder Daur Ta Dekchi (1944)

Paglu 2 (20121)

Awara (2012) - Original DVD Print




Screens :


  
http://www.shotpix.com/images/41448910733930808952.jpg
  
http://www.shotpix.com/images/87846526739087642487.jpg



Extra Screens :


  
http://www.shotpix.com/images/92000047800105421024.jpg
  
http://www.shotpix.com/images/02031891274929003309.jpg
  
http://www.shotpix.com/images/56327062852966122226.jpg
  
http://www.shotpix.com/images/33703925194018601338.jpg



Media Info :



Format                           : AVI
Format/Info                      : Audio Video Interleave
File size                        : 931 MiB
Duration                         : 2h 34mn
Overall bit rate                 : 841 Kbps

Video
ID                               : 0
Format                           : MPEG-4 Visual
Format profile                   : Simple@L1
Format settings, BVOP            : No
Format settings, QPel            : No
Format settings, GMC             : No warppoints
Format settings, Matrix          : Default (H.263)
Codec ID                         : DX50
Codec ID/Hint                    : DivX 5
Duration                         : 2h 34mn
Bit rate                         : 700 Kbps
Width                            : 720 pixels
Height                           : 404 pixels
Display aspect ratio             : 16:9
Frame rate                       : 23.976 fps
Color space                      : YUV
Chroma subsampling               : 4:2:0
Bit depth                        : 8 bits
Scan type                        : Progressive
Compression mode                 : Lossy
Bits/(Pixel*Frame)               : 0.100
Stream size                      : 775 MiB (83%)

Audio
ID                               : 1
Format                           : MPEG Audio
Format version                   : Version 1
Format profile                   : Layer 3
Codec ID                         : 55
Codec ID/Hint                    : MP3
Duration                         : 2h 34mn
Bit rate mode                    : Constant
Bit rate                         : 128 Kbps
Channel(s)                       : 2 channels
Sampling rate                    : 48.0 KHz
Compression mode                 : Lossy
Stream size                      : 142 MiB (15%)
Alignment                        : Aligned on interleaves
Interleave, duration             : 24 ms (0.58 video frame)
Interleave, preload duration     : 504 ms




___________________________________________________________________________________


           I Never Give Any Second Chance To My Friends ! I Never Give !                 

___________________________________________________________________________________




